<svg aria-hidden="true" style="position: absolute; width: 0; height: 0; overflow: hidden;" version="1.1" xmlns="http://www.w3.org/2000/svg" xmlns:xlink="http://www.w3.org/1999/xlink">
<defs>
<symbol id="icon-linegraph" viewBox="0 0 42 32">
<path d="M39 0c-1.654 0-3 1.346-3 3 0 0.888 0.396 1.679 1.011 2.229l-8.8 14.031c-0.371-0.165-0.78-0.26-1.211-0.26-0.868 0-1.644 0.376-2.193 0.967l-9.073-5.745c0.168-0.374 0.266-0.786 0.266-1.222 0-1.654-1.346-3-3-3s-3 1.346-3 3c0 0.904 0.41 1.706 1.044 2.256l-6.895 10.975c-0.354-0.148-0.742-0.231-1.149-0.231-1.654 0-3 1.346-3 3s1.346 3 3 3 3-1.346 3-3c0-0.888-0.395-1.678-1.010-2.228l6.904-10.99c0.343 0.138 0.715 0.218 1.106 0.218 0.859 0 1.629-0.367 2.176-0.947l9.078 5.748c-0.161 0.368-0.254 0.772-0.254 1.199 0 1.654 1.346 3 3 3s3-1.346 3-3c0-0.863-0.371-1.636-0.957-2.184l8.81-14.046c0.354 0.147 0.741 0.23 1.147 0.23 1.654 0 3-1.346 3-3s-1.346-3-3-3zM5 29c0 1.103-0.897 2-2 2s-2-0.897-2-2 0.897-2 2-2 2 0.897 2 2zM13 15c-1.103 0-2-0.897-2-2s0.897-2 2-2 2 0.897 2 2-0.897 2-2 2zM27 24c-1.103 0-2-0.897-2-2s0.897-2 2-2 2 0.897 2 2-0.897 2-2 2zM39 5c-1.103 0-2-0.897-2-2s0.897-2 2-2 2 0.897 2 2-0.897 2-2 2z"></path>
</symbol>
<symbol id="icon-phone" viewBox="0 0 19 32">
<path d="M1.5 32h16c0.827 0 1.5-0.673 1.5-1.5v-29c0-0.827-0.673-1.5-1.5-1.5h-16c-0.827 0-1.5 0.673-1.5 1.5v29c0 0.827 0.673 1.5 1.5 1.5zM1 1.5c0-0.276 0.224-0.5 0.5-0.5h16c0.276 0 0.5 0.224 0.5 0.5v29c0 0.276-0.224 0.5-0.5 0.5h-16c-0.276 0-0.5-0.224-0.5-0.5v-29zM2.5 27h14c0.276 0 0.5-0.224 0.5-0.5v-21c0-0.276-0.224-0.5-0.5-0.5h-14c-0.276 0-0.5 0.224-0.5 0.5v21c0 0.276 0.224 0.5 0.5 0.5zM3 6h13v20h-13v-20zM9 29c0 0.552 0.448 1 1 1s1-0.448 1-1c0-0.552-0.448-1-1-1s-1 0.448-1 1zM7.5 4h4c0.276 0 0.5-0.224 0.5-0.5s-0.224-0.5-0.5-0.5h-4c-0.276 0-0.5 0.224-0.5 0.5s0.224 0.5 0.5 0.5z"></path>
</symbol>
<symbol id="icon-desktop" viewBox="0 0 39 32">
<path d="M1.5 25h17.5v1.5c0 0.276 0.224 0.5 0.5 0.5s0.5-0.224 0.5-0.5v-1.5h17.5c0.827 0 1.5-0.673 1.5-1.5v-22c0-0.827-0.673-1.5-1.5-1.5h-36c-0.827 0-1.5 0.673-1.5 1.5v22c0 0.827 0.673 1.5 1.5 1.5zM1 1.5c0-0.276 0.224-0.5 0.5-0.5h36c0.276 0 0.5 0.224 0.5 0.5v22c0 0.276-0.224 0.5-0.5 0.5h-36c-0.276 0-0.5-0.224-0.5-0.5v-22zM3.5 22h32c0.276 0 0.5-0.224 0.5-0.5v-18c0-0.276-0.224-0.5-0.5-0.5h-32c-0.276 0-0.5 0.224-0.5 0.5v18c0 0.276 0.224 0.5 0.5 0.5zM4 4h31v17h-31v-17zM14 28c-1.14 0-2 0.86-2 2v1.5c0 0.276 0.224 0.5 0.5 0.5h14c0.276 0 0.5-0.224 0.5-0.5v-1.425c0-1.163-0.878-2.075-2-2.075h-11zM26 30.075v0.925h-13v-1c0-0.589 0.411-1 1-1h11c0.57 0 1 0.462 1 1.075z"></path>
</symbol>
</defs>
</svg>
